<svg width="40" height="40" viewBox="0 0 40 40" fill="none" xmlns="http://www.w3.org/2000/svg">
<path fill-rule="evenodd" clip-rule="evenodd" d="M17.6228 30.9407C17.2539 30.9799 16.8793 31 16.5 31C10.701 31 6 26.299 6 20.5C6 14.701 10.701 10 16.5 10C16.8793 10 17.2539 10.0201 17.6228 10.0593C14.2344 12.2953 11.9986 16.1366 11.9986 20.5C11.9986 24.8634 14.2344 28.7047 17.6228 30.9407ZM20.4993 30.2115C16.6841 28.6386 13.9986 24.8829 13.9986 20.5C13.9986 16.1171 16.6841 12.3614 20.4993 10.7885C24.3146 12.3614 27 16.1171 27 20.5C27 24.8829 24.3146 28.6386 20.4993 30.2115ZM20.4993 32.3465C19.2436 32.7703 17.8986 33 16.5 33C9.59644 33 4 27.4036 4 20.5C4 13.5964 9.59644 8 16.5 8C17.8986 8 19.2436 8.22971 20.4993 8.65347C21.755 8.22971 23.1 8 24.4986 8C31.4022 8 36.9986 13.5964 36.9986 20.5C36.9986 27.4036 31.4022 33 24.4986 33C23.1 33 21.755 32.7703 20.4993 32.3465ZM23.3758 10.0593C23.7447 10.0201 24.1193 10 24.4986 10C30.2976 10 34.9986 14.701 34.9986 20.5C34.9986 26.299 30.2976 31 24.4986 31C24.1193 31 23.7447 30.9799 23.3758 30.9407C26.7643 28.7047 29 24.8634 29 20.5C29 16.1366 26.7643 12.2953 23.3758 10.0593Z" fill="#0F0BC7"/>
</svg>
